# xmcd
#
# Track frame offsets:
#	150
#	21077
#	40632
#	62090
#	80323
#	100905
#	119277
#	136381
#	155478
#	171979
#
# Disc length: 2535 seconds
#
# Revision: 8
# Processed by: cddbd v1.5.2PL0 Copyright (c) Steve Scherf et al.
# Submitted via: Jack! The Knife 18 Bulletproof
#
DISCID=7a09e50a
DTITLE=Nek - Calore Umano
DYEAR=1994
DGENRE=Pop
TTITLE0=Calore umano
TTITLE1=Voglia di te
TTITLE2=Cuori in tempesta
TTITLE3=Ragazze della 5ª B
TTITLE4=L'amore c'è
TTITLE5=Però vorrei ci fosse amore
TTITLE6=Paese turchese
TTITLE7=Facciamo un weekend
TTITLE8=Quando sarò lontano
TTITLE9=Angeli nel ghetto
EXTD=
EXTT0=Nek, D'Angeli, Melotti
EXTT1=Nek, Isgrò
EXTT2=Nek, Isgrò
EXTT3=Nek, Melotti
EXTT4=Nek, Isgrò
EXTT5=Nek
EXTT6=Giuseppe Isgrò
EXTT7=Nek, Isgrò, Melotti
EXTT8=Nek, Melotti
EXTT9=Nek, Sanjust, Melotti, Varano
PLAYORDER=
